<?xml version="1.0" encoding="UTF-8" standalone="no"?>
<!-- Created with Inkscape (http://www.inkscape.org/) -->

<svg
   xmlns:dc="http://purl.org/dc/elements/1.1/"
   xmlns:cc="http://creativecommons.org/ns#"
   xmlns:rdf="http://www.w3.org/1999/02/22-rdf-syntax-ns#"
   xmlns:svg="http://www.w3.org/2000/svg"
   xmlns="http://www.w3.org/2000/svg"
   xmlns:sodipodi="http://sodipodi.sourceforge.net/DTD/sodipodi-0.dtd"
   xmlns:inkscape="http://www.inkscape.org/namespaces/inkscape"
   width="24in"
   height="12in"
   viewBox="0 0 609.59998 304.80001"
   version="1.1"
   id="svg8"
   inkscape:version="0.92.3 (2405546, 2018-03-11)"
   sodipodi:docname="drawing.svg">
  <defs
     id="defs2" />
  <sodipodi:namedview
     id="base"
     pagecolor="#ffffff"
     bordercolor="#666666"
     borderopacity="1.0"
     inkscape:pageopacity="0.0"
     inkscape:pageshadow="2"
     inkscape:zoom="1.2249502"
     inkscape:cx="746.0963"
     inkscape:cy="201.74619"
     inkscape:document-units="mm"
     inkscape:current-layer="layer1"
     showgrid="false"
     inkscape:snap-object-midpoints="true"
     units="in"
     inkscape:window-width="730"
     inkscape:window-height="696"
     inkscape:window-x="-7"
     inkscape:window-y="0"
     inkscape:window-maximized="0" />
  <metadata
     id="metadata5">
    <rdf:RDF>
      <cc:Work
         rdf:about="">
        <dc:format>image/svg+xml</dc:format>
        <dc:type
           rdf:resource="http://purl.org/dc/dcmitype/StillImage" />
        <dc:title></dc:title>
      </cc:Work>
    </rdf:RDF>
  </metadata>
  <g
     inkscape:label="Layer 1"
     inkscape:groupmode="layer"
     id="layer1"
     transform="translate(0,7.8000168)">
    <path
       style="fill:#999999;stroke-width:0.096;stroke-miterlimit:4;stroke-dasharray:none"
       d="M 75.589844 736.25195 C 54.651261 736.25195 37.794922 753.10829 37.794922 774.04688 L 37.794922 1076.4102 C 37.794922 1097.3487 54.651261 1114.2051 75.589844 1114.2051 L 377.95312 1114.2051 C 398.89171 1114.2051 415.74805 1097.3487 415.74805 1076.4102 L 415.74805 774.04688 C 415.74805 753.10829 398.89171 736.25195 377.95312 736.25195 L 75.589844 736.25195 z M 226.77148 911.83594 A 13.393366 13.393366 0 0 1 240.16406 925.22852 A 13.393366 13.393366 0 0 1 226.77148 938.62109 A 13.393366 13.393366 0 0 1 213.37891 925.22852 A 13.393366 13.393366 0 0 1 226.77148 911.83594 z "
       transform="matrix(0.26458333,0,0,0.26458333,0,-7.8000168)"
       id="rect39" />
    <path
       style="fill:#999999;stroke:#ff0000;stroke-width:0.09598779;stroke-miterlimit:4;stroke-dasharray:none"
       d="M 75.638672 320.04688 C 54.700089 320.04688 37.84375 336.90321 37.84375 357.8418 L 37.84375 660.20312 C 37.84375 681.14171 54.700089 698 75.638672 698 L 377.9043 698 C 398.84288 698 415.69922 681.14171 415.69922 660.20312 L 415.69922 357.8418 C 415.69922 336.90321 398.84288 320.04688 377.9043 320.04688 L 75.638672 320.04688 z M 226.72461 478.03125 A 65.092214 31.038669 0 0 1 291.81641 509.07031 A 65.092214 31.038669 0 0 1 226.72461 540.10938 A 65.092214 31.038669 0 0 1 161.63086 509.07031 A 65.092214 31.038669 0 0 1 226.72461 478.03125 z "
       transform="matrix(0.26458333,0,0,0.26458333,0,-7.8000168)"
       id="rect3746" />
    <path
       style="fill:#999999;stroke-width:0.096;stroke-miterlimit:4;stroke-dasharray:none"
       d="M 453.74805 728.25195 L 453.74805 1106.2051 L 536.89844 1106.2051 L 536.89844 728.25195 L 453.74805 728.25195 z M 472.31641 747.19727 L 518.33008 747.19727 L 518.33008 835.91797 L 472.31641 835.91797 L 472.31641 747.19727 z "
       transform="matrix(0.26458333,0,0,0.26458333,0,-7.8000168)"
       id="rect3750" />
    <rect
       style="fill:#ffffff;stroke:#ff0000;stroke-width:0.0254;stroke-miterlimit:4;stroke-dasharray:none"
       id="rect4681"
       width="3.175"
       height="3.175"
       x="120.06687"
       y="248.33528" />
    <rect
       y="238.75528"
       x="120.06687"
       height="3.175"
       width="3.175"
       id="rect4683"
       style="fill:#ffffff;stroke:#ff0000;stroke-width:0.0254;stroke-miterlimit:4;stroke-dasharray:none" />
    <rect
       style="fill:#ffffff;stroke:#ff0000;stroke-width:0.0254;stroke-miterlimit:4;stroke-dasharray:none"
       id="rect4685"
       width="3.175"
       height="3.175"
       x="120.06687"
       y="229.17528" />
    <rect
       y="248.33528"
       x="138.86668"
       height="3.175"
       width="3.175"
       id="rect4687"
       style="fill:#ffffff;stroke:#ff0000;stroke-width:0.0254;stroke-miterlimit:4;stroke-dasharray:none" />
    <rect
       style="fill:#ffffff;stroke:#ff0000;stroke-width:0.0254;stroke-miterlimit:4;stroke-dasharray:none"
       id="rect4689"
       width="3.175"
       height="3.175"
       x="138.86668"
       y="238.75528" />
    <rect
       y="229.17528"
       x="138.86668"
       height="3.175"
       width="3.175"
       id="rect4691"
       style="fill:#ffffff;stroke:#ff0000;stroke-width:0.0254;stroke-miterlimit:4;stroke-dasharray:none" />
    <path
       style="fill:#999999;stroke-width:0.01974905;stroke-miterlimit:4;stroke-dasharray:none"
       d="m 180.28363,183.80333 v 100.0001 h 13.3 v -100.0001 z"
       id="path4693"
       inkscape:connector-curvature="0" />
    <g
       id="g4713"
       transform="translate(31.440715)">
      <rect
         style="fill:#333333;stroke:#ff0000;stroke-width:0.0254;stroke-miterlimit:4;stroke-dasharray:none"
         id="rect4698"
         width="3.175"
         height="3.175"
         x="158.9552"
         y="258.73523" />
      <rect
         y="248.50726"
         x="158.95522"
         height="3.175"
         width="3.175"
         id="rect4700"
         style="fill:#333333;stroke:#ff0000;stroke-width:0.0254;stroke-miterlimit:4;stroke-dasharray:none" />
      <rect
         style="fill:#333333;stroke:#ff0000;stroke-width:0.0254;stroke-miterlimit:4;stroke-dasharray:none"
         id="rect4702"
         width="3.175"
         height="3.175"
         x="158.95522"
         y="240.36436" />
    </g>
    <rect
       style="fill:#333333;stroke:#ff0000;stroke-width:0.0254;stroke-miterlimit:4;stroke-dasharray:none"
       id="rect4704"
       width="3.175"
       height="3.175"
       x="170.0871"
       y="252.0394" />
    <rect
       y="242.4594"
       x="170.0871"
       height="3.175"
       width="3.175"
       id="rect4706"
       style="fill:#333333;stroke:#ff0000;stroke-width:0.0254;stroke-miterlimit:4;stroke-dasharray:none" />
    <rect
       style="fill:#333333;stroke:#ff0000;stroke-width:0.0254;stroke-miterlimit:4;stroke-dasharray:none"
       id="rect4708"
       width="3.175"
       height="3.175"
       x="170.0871"
       y="232.87939" />
  </g>
</svg>
